<svg xmlns="http://www.w3.org/2000/svg" width="418" height="423.99" viewBox="0 0 418 423.99">
  <g id="file-svg" transform="translate(127 -26.13)">
    <g id="file-eps">
      <g id="file-eps-2" data-name="file-eps" transform="translate(-11.216)">
        <g id="g10" transform="translate(-171.869 29.381)">
          <g id="g12" transform="translate(0 -56.25)">
            <g id="g20" transform="translate(110.084 52.999)">
              <g id="g22">
                <g id="g24">
                  <path id="path26" d="M11.684,355.381V-32.641A17.989,17.989,0,0,1,29.668-50.625H186.886L321.5,83.992V355.38a17.989,17.989,0,0,1-17.984,17.984H29.668a17.989,17.989,0,0,1-17.984-17.984Z" transform="translate(-11.684 50.625)" fill="#212529" fill-rule="evenodd"/>
                </g>
              </g>
              <g id="g28" transform="translate(175.202)">
                <g id="g30">
                  <path id="path32" d="M30.279-50.625,164.9,83.992H48.263A17.989,17.989,0,0,1,30.279,66.008Z" transform="translate(-30.279 50.625)" fill="#525252" fill-rule="evenodd"/>
                </g>
              </g>
            </g>
          </g>
        </g>
      </g>
      <g id="Rectangle_1" data-name="Rectangle 1" transform="translate(-127 238)" fill="#fff" stroke="#212529" stroke-width="10">
        <rect width="418" height="173" stroke="none"/>
        <rect x="5" y="5" width="408" height="163" fill="none"/>
      </g>
    </g>
    <path id="Path_1" data-name="Path 1" d="M7.588-3.9V-20.645a25.867,25.867,0,0,0,5.366,3.691,41.465,41.465,0,0,0,6.6,2.769,51.986,51.986,0,0,0,6.973,1.743,37.173,37.173,0,0,0,6.426.615q10.254,0,15.278-3.418a11.245,11.245,0,0,0,5.024-9.912,10.811,10.811,0,0,0-1.675-6.05,17.566,17.566,0,0,0-4.683-4.683,49.2,49.2,0,0,0-7.075-4.067Q35.752-41.9,31.1-44.023q-4.99-2.666-9.3-5.4a40.013,40.013,0,0,1-7.485-6.05,25.311,25.311,0,0,1-4.99-7.485A24.378,24.378,0,0,1,7.52-72.734a22.563,22.563,0,0,1,3.11-12,26.268,26.268,0,0,1,8.2-8.408A37.606,37.606,0,0,1,30.42-98.062a55.022,55.022,0,0,1,13.262-1.606q15.381,0,22.422,3.486v16.064q-8.34-6.016-21.465-6.016a38.46,38.46,0,0,0-7.212.684A21.439,21.439,0,0,0,31-83.193a13.91,13.91,0,0,0-4.614,4.033,9.885,9.885,0,0,0-1.777,5.947,11.247,11.247,0,0,0,1.367,5.674,14.636,14.636,0,0,0,4,4.375A40.858,40.858,0,0,0,36.4-59.3q3.794,1.88,8.784,4.067,5.127,2.666,9.673,5.605a45.6,45.6,0,0,1,8,6.494,28.537,28.537,0,0,1,5.469,7.9,23.187,23.187,0,0,1,2.017,9.878,24.477,24.477,0,0,1-3.008,12.578,24.242,24.242,0,0,1-8.1,8.34A36.081,36.081,0,0,1,47.51.205,66.1,66.1,0,0,1,33.5,1.641a59.673,59.673,0,0,1-6.05-.376Q23.857.889,20.1.171a67.6,67.6,0,0,1-7.109-1.743A22.508,22.508,0,0,1,7.588-3.9ZM165.156-98.027,129.951,0H111.768L77.178-98.027H94.951l24.2,74.375a45.883,45.883,0,0,1,1.777,8.271h.273a43.554,43.554,0,0,1,1.982-8.408L147.93-98.027ZM251.768-6.7a70.14,70.14,0,0,1-34.111,8.34q-21.738,0-35.205-13.535t-13.467-35.82q0-22.764,14.731-37.358t37.427-14.595q16.338,0,27.48,4.785v16.748q-11.279-7.52-26.865-7.52-15.654,0-25.669,10.322T186.074-48.6q0,16.885,8.613,26.558t23.379,9.673a37,37,0,0,0,17.5-3.9V-39.58H214.922V-53.252h36.846Z" transform="translate(-53 376)" fill="#212529"/>
  </g>
</svg>
