<svg xmlns="http://www.w3.org/2000/svg" width="418" height="423.99" viewBox="0 0 418 423.99">
  <g id="file-eps" transform="translate(127 -26.13)">
    <g id="file-eps-2" data-name="file-eps" transform="translate(-11.216)">
      <g id="g10" transform="translate(-171.869 29.381)">
        <g id="g12" transform="translate(0 -56.25)">
          <g id="g20" transform="translate(110.084 52.999)">
            <g id="g22">
              <g id="g24">
                <path id="path26" d="M11.684,355.381V-32.641A17.989,17.989,0,0,1,29.668-50.625H186.886L321.5,83.992V355.38a17.989,17.989,0,0,1-17.984,17.984H29.668a17.989,17.989,0,0,1-17.984-17.984Z" transform="translate(-11.684 50.625)" fill="#212529" fill-rule="evenodd"/>
              </g>
            </g>
            <g id="g28" transform="translate(175.202)">
              <g id="g30">
                <path id="path32" d="M30.279-50.625,164.9,83.992H48.263A17.989,17.989,0,0,1,30.279,66.008Z" transform="translate(-30.279 50.625)" fill="#525252" fill-rule="evenodd"/>
              </g>
            </g>
          </g>
        </g>
      </g>
    </g>
    <g id="Rectangle_1" data-name="Rectangle 1" transform="translate(-127 238)" fill="#fff" stroke="#212529" stroke-width="10">
      <rect width="418" height="173" stroke="none"/>
      <rect x="5" y="5" width="408" height="163" fill="none"/>
    </g>
    <path id="Path_1" data-name="Path 1" d="M67.425,43.959H7.778V-62.294H65.054v14.967H25.413v30.083H61.942V-2.35H25.413V29.066H67.425ZM103.881,5.43v38.53H86.32V-62.294h32.232q18.3,0,28.379,8.521t10.077,24.007q0,15.486-10.522,25.341T118.033,5.43Zm0-53.2V-8.945h11.411q11.337,0,17.264-5.261t5.928-14.819q0-18.746-21.784-18.746Zm66.242,87.507V21.582a28.038,28.038,0,0,0,5.817,4,44.945,44.945,0,0,0,7.15,3,56.349,56.349,0,0,0,7.558,1.889,40.293,40.293,0,0,0,6.965.667q11.114,0,16.56-3.7a12.188,12.188,0,0,0,5.446-10.744,11.718,11.718,0,0,0-1.815-6.557,19.04,19.04,0,0,0-5.076-5.076A53.33,53.33,0,0,0,205.058.65q-4.409-2.112-9.447-4.409-5.409-2.89-10.077-5.854a43.371,43.371,0,0,1-8.113-6.557,27.435,27.435,0,0,1-5.409-8.113,26.423,26.423,0,0,1-1.964-10.6,24.456,24.456,0,0,1,3.371-13A28.472,28.472,0,0,1,182.311-57a40.761,40.761,0,0,1,12.559-5.335,59.639,59.639,0,0,1,14.375-1.741q16.672,0,24.3,3.779v17.413q-9.04-6.52-23.266-6.52a41.688,41.688,0,0,0-7.817.741,23.238,23.238,0,0,0-6.965,2.445,15.077,15.077,0,0,0-5,4.372,10.715,10.715,0,0,0-1.926,6.446,12.191,12.191,0,0,0,1.482,6.15,15.864,15.864,0,0,0,4.335,4.742,44.287,44.287,0,0,0,6.965,4.186q4.112,2.038,9.521,4.409,5.557,2.89,10.485,6.076A49.424,49.424,0,0,1,230.029-2.8a30.932,30.932,0,0,1,5.928,8.558,25.132,25.132,0,0,1,2.186,10.707,26.531,26.531,0,0,1-3.26,13.634,26.277,26.277,0,0,1-8.78,9.04,39.109,39.109,0,0,1-12.707,5.039,71.646,71.646,0,0,1-15.19,1.556,64.681,64.681,0,0,1-6.557-.408q-3.89-.408-7.965-1.186a73.265,73.265,0,0,1-7.706-1.889A24.4,24.4,0,0,1,170.122,39.736Z" transform="translate(-40.778 337.658)" fill="#212529"/>
  </g>
</svg>
