<svg xmlns="http://www.w3.org/2000/svg" width="418" height="423.99" viewBox="0 0 418 423.99">
  <g id="file-png" transform="translate(127 -26.13)">
    <g id="Group_1" data-name="Group 1">
      <g id="file-eps">
        <g id="file-eps-2" data-name="file-eps" transform="translate(-11.216)">
          <g id="g10" transform="translate(-171.869 29.381)">
            <g id="g12" transform="translate(0 -56.25)">
              <g id="g20" transform="translate(110.084 52.999)">
                <g id="g22">
                  <g id="g24">
                    <path id="path26" d="M11.684,355.381V-32.641A17.989,17.989,0,0,1,29.668-50.625H186.886L321.5,83.992V355.38a17.989,17.989,0,0,1-17.984,17.984H29.668a17.989,17.989,0,0,1-17.984-17.984Z" transform="translate(-11.684 50.625)" fill="#212529" fill-rule="evenodd"/>
                  </g>
                </g>
                <g id="g28" transform="translate(175.202)">
                  <g id="g30">
                    <path id="path32" d="M30.279-50.625,164.9,83.992H48.263A17.989,17.989,0,0,1,30.279,66.008Z" transform="translate(-30.279 50.625)" fill="#525252" fill-rule="evenodd"/>
                  </g>
                </g>
              </g>
            </g>
          </g>
        </g>
        <g id="Rectangle_1" data-name="Rectangle 1" transform="translate(-127 238)" fill="#fff" stroke="#212529" stroke-width="10">
          <rect width="418" height="173" stroke="none"/>
          <rect x="5" y="5" width="408" height="163" fill="none"/>
        </g>
      </g>
    </g>
    <path id="Path_1" data-name="Path 1" d="M28.3-35.547V0H12.1V-98.027H41.836q16.885,0,26.182,7.861t9.3,22.148q0,14.287-9.707,23.379t-26.25,9.092Zm0-49.082v35.82H38.828q10.459,0,15.928-4.854t5.469-13.672q0-17.295-20.1-17.295ZM177.051,0H159.277L112.451-72.051a31.948,31.948,0,0,1-2.939-5.674h-.41a100.921,100.921,0,0,1,.547,13.467V0H93.926V-98.027h18.936l45.254,70.342q2.871,4.375,3.691,6.016h.273a87.1,87.1,0,0,1-.684-13.193V-98.027h15.654ZM277.813-6.7A70.14,70.14,0,0,1,243.7,1.641q-21.738,0-35.205-13.535t-13.467-35.82q0-22.764,14.731-37.358t37.427-14.595q16.338,0,27.48,4.785v16.748q-11.279-7.52-26.865-7.52-15.654,0-25.669,10.322T212.119-48.6q0,16.885,8.613,26.558t23.379,9.673a37,37,0,0,0,17.5-3.9V-39.58H240.967V-53.252h36.846Z" transform="translate(-61 376)" fill="#212529"/>
  </g>
</svg>
